<svg fill="none" height="15" viewBox="0 0 15 15" width="15" xmlns="http://www.w3.org/2000/svg"><g clip-rule="evenodd" fill="#151515" fill-rule="evenodd"><path d="m14 7.5c0 3.5899-2.9101 6.5-6.5 6.5-3.58985 0-6.5-2.9101-6.5-6.5 0-3.58985 2.91015-6.5 6.5-6.5 3.5899 0 6.5 2.91015 6.5 6.5zm-1 0c0 3.0376-2.4624 5.5-5.5 5.5-3.03757 0-5.5-2.4624-5.5-5.5 0-3.03757 2.46243-5.5 5.5-5.5 3.0376 0 5.5 2.46243 5.5 5.5z"/><path d="m7.5 4c.27614 0 .5.22386.5.5v2.5h2.5c.2761 0 .5.22386.5.5s-.2239.5-.5.5h-3c-.27614 0-.5-.22386-.5-.5v-3c0-.27614.22386-.5.5-.5z"/></g></svg>